<svg xmlns="http://www.w3.org/2000/svg" width="70" height="80" viewBox="0 0 70 80">
  <g fill="#434343" fill-rule="evenodd">
    <path d="M3.83 29.408c-7.19 11.737-2.618 29.547 5.334 40.346C13.134 75.154 17.152 80 22.656 80c.104 0 .208-.002.315-.006 2.59-.097 4.46-.846 6.27-1.57 2.03-.812 4.13-1.653 7.42-1.653 3.13 0 5.13.82 7.06 1.6 1.91.78 3.87 1.58 6.77 1.53 6.2-.11 10.008-5.34 13.367-9.95 3.506-4.81 5.264-9.49 5.857-11.28l.025-.07c.115-.32-.045-.66-.37-.8l-.05-.02c-1.09-.42-10.67-4.413-10.77-15.31-.093-8.85 7.186-13.53 8.645-14.38l.07-.04c.16-.093.27-.245.307-.42.038-.172 0-.352-.11-.5-5.024-6.92-12.724-7.96-15.824-8.082-.45-.045-.914-.066-1.38-.066-3.64 0-7.13 1.293-9.93 2.33-1.936.718-3.61 1.338-4.76 1.338-1.294 0-2.974-.63-4.92-1.36-2.602-.97-5.55-2.07-8.673-2.07-.075 0-.148 0-.22.003-7.26.1-14.12 4.005-17.9 10.19z"/>
    <path d="M51.622 0c-4.396.17-9.67 2.714-12.822 6.186-2.678 2.92-5.295 7.785-4.606 12.69.044.307.31.544.637.567.3.022.6.033.91.033 4.3 0 8.94-2.236 12.1-5.837 3.33-3.81 5.02-8.69 4.51-13.06-.04-.35-.36-.6-.72-.59z"/>
  </g>
</svg>
