<svg xmlns="http://www.w3.org/2000/svg" width="70" height="70" viewBox="0 0 70 70">
  <g fill="none" fill-rule="evenodd">
    <path fill="#563D7C" d="M0 60.974C0 65.96 4.04 70 9.026 70h51.948C65.96 70 70 65.96 70 60.974V9.026C70 4.04 65.96 0 60.974 0H9.026C4.04 0 0 4.04 0 9.026v51.948z"/>
    <path fill="#FFF" d="M29.027 30.964V21.05h8.726c.83 0 1.633.07 2.404.208.772.14 1.455.386 2.048.742.594.356 1.07.85 1.425 1.484.356.633.534 1.445.534 2.434 0 1.78-.534 3.067-1.603 3.858-1.06.792-2.43 1.188-4.09 1.188h-9.44zm-9.32-17.155v42.38h20.54c1.9 0 3.75-.24 5.55-.71 1.8-.48 3.403-1.21 4.808-2.2 1.405-.99 2.522-2.27 3.354-3.83.83-1.56 1.24-3.41 1.24-5.55 0-2.65-.645-4.92-1.93-6.8s-3.236-3.195-5.848-3.947c1.898-.91 3.333-2.08 4.303-3.503.97-1.424 1.454-3.205 1.454-5.342 0-1.978-.327-3.64-.98-4.986-.653-1.346-1.573-2.425-2.76-3.236-1.187-.81-2.61-1.397-4.274-1.75-1.66-.36-3.5-.537-5.52-.537H19.71zm9.32 35.14V37.31h10.15c2.02 0 3.642.465 4.868 1.395 1.227.93 1.84 2.482 1.84 4.66 0 1.107-.187 2.017-.563 2.73-.376.712-.88 1.275-1.514 1.69-.633.417-1.365.713-2.196.89-.83.18-1.702.27-2.612.27h-9.973z"/>
  </g>
</svg>
