<svg xmlns="http://www.w3.org/2000/svg" width="56" height="79" viewBox="0 0 56 79">
  <g fill="none" fill-rule="evenodd">
    <path fill="#264DE4" d="M27.966 78.77l-22.79-6.327L.096 15.48h55.807L50.82 72.434 27.965 78.77"/>
    <path fill="#2965F1" d="M46.466 68.807l4.345-48.67H28v53.79l18.466-5.12"/>
    <path fill="#EBEBEB" d="M11.74 41.264l.626 6.986H28v-6.986H11.74m-1.258-14.14l.635 6.986H28v-6.986H10.482M28 59.408l-.03.008-7.78-2.1-.5-5.572h-7.01l.98 10.97 14.31 3.972.032-.01V59.41"/>
    <path fill="#000" d="M13.23 0h8.462v3.538H16.77v3.54h4.922v3.537h-8.46V0m10.153 0h8.46v3.077h-4.922v.615h4.923v7.077h-8.46V7.534h4.922V6.92h-4.923V0m10.153 0H42v3.077h-4.923v.615H42v7.077h-8.462V7.534h4.924V6.92h-4.924V0"/>
    <path fill="#FFF" d="M44.215 41.264l1.26-14.14h-17.5v6.986h9.845l-.636 7.154h-9.208v6.986h8.603l-.815 9.06-7.792 2.104v7.268l14.322-3.97.105-1.18 1.643-18.392.17-1.876"/>
  </g>
</svg>
