<svg xmlns="http://www.w3.org/2000/svg" width="70" height="70" viewBox="0 0 70 70">
  <g fill="none" fill-rule="evenodd">
    <path fill="#F7DF1E" d="M0 0h70v70H0z"/>
    <path fill="#000" d="M28.858 43.74h10.706v-2.914h-7.4v-4.514h6.823V33.4h-6.823v-4.226h7.4V26.26H28.858v17.48zm25.01-4.75c0-3.49-.237-4.252-4.935-5.38-3.018-.736-3.07-.788-3.07-2.783 0-1.522.393-1.994 2.624-1.994 1.522 0 3.228.21 4.67.525l.37-2.782c-1.733-.393-3.57-.577-5.093-.577-4.435 0-5.878 1.57-5.878 4.75 0 3.7.577 4.51 4.803 5.45 3.14.68 3.2.84 3.2 2.78 0 1.68-.4 2.176-2.79 2.176-1.73 0-3.308-.315-4.935-.814l-.578 2.6c1.154.55 3.464 1.05 5.46 1.05 5.17 0 6.14-1.707 6.14-5.01zm6.087-6.51c0-2.676 1.286-3.2 4.382-3.2.552 0 1.706.078 2.467.235l.21-2.676c-.787-.19-2.047-.32-3.018-.32-4.776 0-7.243 1.47-7.243 6.09v6.37c0 3.017.893 5.01 5.406 5.01 4.12 0 5.38-2.046 5.38-4.775v-1.26c0-3.017-1.29-4.33-4.47-4.33-1.13 0-2.207.16-3.125.473v-1.62zm2.624 3.91c1.15 0 1.75.394 1.75 1.654v1.286c0 1.338-.527 1.916-2.18 1.916s-2.206-.473-2.206-1.916v-2.388c.735-.315 1.68-.55 2.624-.55z"/>
  </g>
</svg>
