<svg xmlns="http://www.w3.org/2000/svg" width="70" height="70" viewBox="0 0 70 70">
  <path fill="#DE4C36" fill-rule="evenodd" d="M68.375 31.74L37.948 1.314c-1.75-1.752-4.593-1.752-6.347 0l-6.312 6.32 8.015 8.014c1.863-.63 3.998-.207 5.483 1.277 1.493 1.495 1.912 3.65 1.268 5.517l7.725 7.725c1.87-.644 4.024-.227 5.517 1.268 2.086 2.085 2.086 5.465 0 7.55-2.087 2.088-5.467 2.088-7.554 0-1.57-1.57-1.958-3.874-1.163-5.807l-7.205-7.204V44.93c.508.254.988.59 1.41 1.01 2.087 2.087 2.087 5.466 0 7.555-2.085 2.086-5.467 2.086-7.55 0-2.086-2.09-2.086-5.468 0-7.554.515-.51 1.11-.9 1.748-1.16V25.64c-.636-.26-1.23-.646-1.747-1.165-1.58-1.578-1.96-3.897-1.15-5.838l-7.9-7.906L1.313 31.6c-1.752 1.753-1.752 4.595 0 6.348l30.43 30.426c1.75 1.753 4.592 1.753 6.346 0L68.37 38.09c1.753-1.754 1.753-4.598 0-6.35"/>
</svg>
