<svg xmlns="http://www.w3.org/2000/svg" width="70" height="81" viewBox="0 0 70 81">
  <g fill="none" fill-rule="evenodd">
    <path fill="#000" d="M10.95 35.118c-2.337 1.097-8.522 6.033-9.713 7.495C0 44.076-.366 41.79.917 37.998c1.007-3.063 3.573-7.222 7.88-10.786 2.52-2.057 8.063-5.027 11.453-6.764.688-.366 9.576-4.114 17.502-5.987.687-.18-.825 1.15-1.054 1.88-1.19 3.48-24.97 18.38-24.97 18.38l-.778.41zm33.49 41.91c.413 2.468.047 2.65-2.52 2.97-2.565.32-4.443-.64-5.13-1.28-.688-.64-.825-2.056-.138-3.335.413-.823.825-1.097 1.054-2.103.23-.96.413-1.188.596-1.554.183-.32.23-.64.275-2.88.045-2.238 0-6.443.23-8.225.228-1.82 8.154.83 8.154.83s-1.87 4.66-2.38 5.81c-.5 1.15-.46 3.34-.46 3.8 0 .46-.18 1.37-.32 1.42-.13.05.46 1.24.19 1.92-.18.64.41 2.29.46 2.65zm3.025-69.88c-.275-1.737 0-5.165.366-5.713 1.15-1.554 7.2-1.737 8.48.09.55.824.51 2.744.41 3.978-.09 1.234-.41 3.884-.46 4.753-.04.64-6.68 1.645-8.15-.092-.41-.456-.64-3.016-.64-3.016zm13.47 65.446c2.794 2.012 4.947 2.377 6.37 3.108 1.42.732 1.05 2.15-1.33 2.56-1.925.365-4.95-.366-6.965-.366s-6.506.23-7.697-.594c-1.374-.96-.78-2.742-.78-2.742.368-1.005 1.284-3.245 1.01-5.073-.276-1.828-.643-2.834-1.33-4.525-.687-1.69-1.19-5.85-.55-6.078.642-.23.46 0 1.284.182.824.183 1.74.458 3.527.458 1.787 0 3.757-.275 4.445-.412.68-.137 1.23-.274 1 1.143-.23 1.417-.92 4.067-.96 6.124-.05 2.05-.05 4.43.09 4.84.13.41 1.14.87 1.88 1.37z"/>
    <g fill="#88CE02">
      <path d="M51.13 11.718c-5.04 4.342-14.798 5.53-29.276 11.106-3.71 1.417-13.607 5.667-15.99 10.1 8.018-4.615 10.996 1.737 11.638 8.273.595 6.124 3.665 9.323 11.545 9.14 8.11-.182 10.583 4.525 12.828 10.055 4.353-21.16 11.317-25.274 15.806-28.884 9.53-7.724-2.19-21.344-6.55-19.79z"/>
      <path d="M51.13 11.718c-12.095 4.205-24.053 5.256-38.118 13.894-3.345 2.057-10.4 6.718-11.775 15.63 5.13-5.667 16.997-12.796 31.52-17.32 7.33-2.286 12.692-3.794 19.197-6.308-.457-2.925-.457-4.068-.824-5.896z"/>
    </g>
    <path fill="#000" d="M66.57 36.764s-.87 2.97-2.612 3.93c0 0-1.283.457-3.848-.96-.733-.41-1.283-1.828-1.237-2.285.046-1.1.733-1.6.733-1.6s.733-1.24 1.603-1.19c.87.04 2.33.18 2.79-.23.41-.46 2.65.82 2.56 2.33zM47.877 8.016s-.183 2.33-.504 3.794c-.046.274-1.42.41-2.428.823 1.924 5.484 13.515 5.438 15.027 2.742-.733-.503-2.2-1.28-2.886-1.554-.687-.27-.64-.22-.687-1.5-.05-1.28-.14-3.65-.23-4.29-.1-.64-7.2-.64-8.3 0z"/>
    <path fill="#EFEFEF" d="M48.335 8.016s0 1.326-.137 2.605c-.046.6-.092.96-.183 1.42-.046.28 1.557 1.37 2.015 3.8 2.2 4.89 7.285 2.47 9.393.14-.733-.5-1.925-1.19-3.3-1.74-.686-.27-.366-.87-.41-2.15-.047-1.28-.23-3.15-.322-3.84-.09-.68-5.95-.87-7.05-.23z"/>
    <path fill="#000" d="M47.877 8.016s-.046.823-.183 1.783c.595.59 1.374 1.41 1.97 1.91.412.36 1.42.32 2.337.32.83 0 1.56.09 1.88-.09.74-.37 1.79-1.28 2.38-1.97-.04-.83-.09-1.6-.13-1.97-.04-.64-7.15-.64-8.24 0z"/>
    <path fill="#000" d="M52.046 11.49c-.55 0-1.19-.046-1.695-.137-.22-.046-.45-.183-.64-.275-.32-.228-.64-.502-1-.777-.73-.54-.78-.86-.78-1 .32-2.88-.09-5.3-.09-5.3s-.32-1.24 1.42-1.56c1.74-.32 2.8-.36 2.8-.36s1.1 0 2.8.37c1.72.31 1.4 1.55 1.4 1.55s-.41 2.43-.09 5.3c0 .14-.05.46-.78 1.01-.64.46-1.14.96-1.65 1.06-.5.09-1.14.13-1.69.13z"/>
    <path fill="#000" d="M52.046.887c-3.023 0-3.62.822-4.49 1.736-.183.23-.046 1.6.275 4.525h.42s-.27-.823-.23-1.782c.05-.96.23-.914.09-1.143-.18-.274-.55-.73.28-1.188.83-.457 2.11.365 3.67.41 1.56-.045 2.89-.867 3.71-.41.83.457.46.914.28 1.188-.18.274.05.183.09 1.143.05.96-.23 1.782-.23 1.782h.42c.28-2.925.46-4.205.32-4.433-.8-1.005-1.58-1.783-4.6-1.828zM66.57 36.9s-.87 2.79-2.566 3.748c-.367-.182-.32-.457-.642-.868-.09-.137-.412-.23-.55-.366-.137-.137-.09-.365-.32-.548-.183-.183-.32-.046-.504-.183-.183-.183-.23-.41-.366-.548-.092-.092-.46-.137-.55-.23-.23-.227-2.245-.64-2.153-1.096.18-.69.54-1.19.54-1.19s.87-1.28 1.74-1.24c.87.04 1.69.23 2.15-.19.5-.46 3.34 1.23 3.21 2.69z"/>
    <path fill="#000" d="M60.614 16.7s2.886-.686 4.856 1.188c1.97 1.92 1.833 4.296 1.237 5.76.504.593 1.42 2.238.733 4.203 3.024 2.56 1.695 6.49-1.008 9.1 0 0-.64-2.37-3.207-2.51.092-.91-2.382-1.64-1.237-4.02-1.74-.41-1.695-1.6-1.97-3.06-.23-1.46.596-10.65.596-10.65z"/>
    <path fill="#EFEFEF" d="M59.56 17.98s3.344-1.69 5.314.228c1.97 1.92 1.42 4.022.825 5.485.5.593 1.69 2.285.96 4.296-.14.45-1.15.45-1.88 1.64 1.83-1.05 2.98-.78 3.39.55.64 2.05-.78 4.52-2.02 5.89 0-.05-.05-.09-.05-.14-.19.68-.41 2.01-1.79 3.47-.69.73-1.24.64-2.02.45-.92-.23-1.24-.64-2.52-1.32-.73-.41-.32-.92-.32-1.33 0-.09.09-.23.23-.41.09-.23.36-.6.78-1.01 0 0 .59-.83 1.46-.78.87.04 1.78-.14 2.01-.37 0-1.6-1.83-1.648-1.19-4.39.04-.14.27-.367 1-.458-1.1-.23-1.607-.278-2.386-1.01-.55-.5-.96-1.14-1.1-1.965-.274-1.42-.73-8.868-.73-8.868z"/>
    <path fill="#000" d="M49.893 15.1c-.275-.365-1.695-2.193-4.398-2.925-.78-.228-1.283.412-2.062.87-.23-.138-1.237-.595-1.787-.276-.55.32-.916.64-1.466.86-.275-.14-1.008-.14-1.603.09-.596.18-1.512.59-2.383 1.78-.55 1.96 9.713.5 9.713.5l3.986-.92z"/>
    <path fill="#88CE02" d="M49.985 15.1c-1.467-.502-1.238-2.193-4.49-2.467-.642-.046-1.054.456-1.512.776.23.22.458.59.595.96-.412-.46-1.145-1.06-1.878-1.19-.688-.14-1.146.36-1.88.73.138.13.276.36.46.64-.642-.41-1.1-.55-1.97-.23-.596.18-1.742.68-2.612 1.92-.55 1.96 9.254-.23 9.254-.23l4.033-.92z"/>
    <path fill="#000" d="M58.598 15.832s0-.503-.046-.96c0-.09-.367-.32-.367-.41l-.09-.093s.732-.42 1.282-.19c.595.18.916.96.916.96 1.054-.37 1.145.04 1.65.59 1.1-.23 1.236.18 1.924 1.19 0 0-.825-.14-2.43.13-1.556.23-2.84-1.28-2.84-1.24z"/>
    <path fill="#88CE02" d="M58.414 15.603s.275-.23.184-.274c.503-.28 1.19-.6 1.512.27 1.053-.37 1.19.13 1.695.68 1.282-.6 1.374.13 1.466.45-.41 0-1 .04-1.83.13-1.55.23-3.07-1.33-3.02-1.28z"/>
    <path fill="#000" d="M42.837 14.46s2.612.914 4.81.777c2.2-.182 5.957-.365 7.973.823 0 0 2.06-.73 3.986-.23 1.924.504 5.452 3.795 4.398 7.268-.092.23-.687.594-1.374.823 0 0 .366 1.56-.275 2.84-.642 1.24-2.062 3.61-2.108 6.9-.045.55-.137 1.69-.23 2.24-3.572-.14-9.07-1.46-14.476-1.37.05-.59.1-.96.14-1.55h.14c-.27-1.5-.36-2.28-.64-3.42-1.74-1.09-3.57-2.37-5.13-4.8-1.51-2.42 2.8-10.28 2.8-10.28zm17.685 24.68s2.84 10.146-.504 14.397c0 0 .504 1.965-.64 4.067-.185.914-.414 1.737-.55 2.65-.597 3.794-1.605 5.394-1.88 11.472l-2.75-.045s-.32-4.38-1.28-6.71c-.55-1.32-2.705-3.11-2.613-4.89.092-1.37.367-2.51 2.704-4.34.18-2.65-2.48-5.16-2.07-15.03l9.57-1.55z"/>
    <path fill="#EFEFEF" d="M59.697 38.73c.734 4.66 2.43 11.562-.64 14.943.136.64.228 1.554.045 2.605-.092.55-.275 1.143-.504 1.783-.458 1.1-.642 2.7-.78 3.66-.595 3.8-.595 3.98-.87 10.06l-2.75-.04s-.32-4.39-1.28-6.72c-.55-1.32-1.697-2.47-1.788-4.25-.092-1.37.87-4.11 3.16-4.02-.136-5.53-2.702-4.43-3.39-15.95l8.797-2.06zm-16.86-24.27s1.008.32 2.108.412c1.1.09 2.29 0 3.344-.046 2.19-.183 5.31-.41 7.37.777 0 0 1.14-.366 2.38-.274.55.04 1.1.5 1.74.68 2.01.5 3.94 3.84 3.07 6.85-.09.22-.74 0-1.47.22.14.64.23 2.1-.51 3.65-.78 1.55-1.79 3.56-1.61 7.4-4.81-.23-6.97-.55-11.73-.78-.41-1.69-.69-3.39-.73-4.25.64-.32 1.01-.6 1.51-1.15-1.38.23-1.93.134-2.75-.32-.83-.46-2.29-1.92-3.02-2.88-.09-.09-.6 1.414-1.74 1.46-.41-.596 1.33-2.287 1.01-2.927-1.15-2.33 1-8.87 1-8.87z"/>
    <path fill="#000" d="M60.064 34.935s.09 1.646.09 2.057c0 .457.368 1.828.413 2.468-.503.868-2.702 2.834-6.688 3.565-3.95.822-9.17-5.347-9.17-5.347.13-.595.59-2.33.91-3.245.04-.092.13-.32.13-.412.41-.59 14.29.92 14.29.92z"/>
    <path fill="#EFEFEF" d="M59.056 35.073c0 1.142.183 1.965.32 2.696.23 1.32.596 2.19.596 3.06 0 2.65-3.482 2.19-6.414 2.28-3.94.82-7.285-5.35-7.285-5.35.275-1.05.458-2.24.87-3.25.046-.55.138-1.24.184-1.56 5.59 0 9.53.32 11.82.55.092.5 0 1.37-.09 1.55z"/>
    <path fill="#000" d="M54.657 40.968s-2.428-5.393-9.712-3.793c-1.74 4.89-4.078 10.512-2.566 16.59-1.52 2.057-3.26 3.2-3.26 6.993s.18 4.433.18 4.433l5.36.28s1.74-2.24 2.43-4.66c.18-.68.36-1.92.23-3.34.18-.27.96-.91 1.05-2.15 0 0 2.61-1.37 4.12-4.7 1.42-3.01 1.05-5.62 2.15-9.64z"/>
    <path fill="#EFEFEF" d="M54.657 40.968c-.137-.502-1.97-5.438-8.75-3.976-3.986 10.603-2.52 14.99-1.924 16.91-2.704 3.428-3.94 4.16-3.39 11.106h3.573c1.65-2.605 2.016-3.565 2.107-6.993 0-.137-.503.274-.87.732.275-1.417 1.054-1.69 1.65-2.56.274-.365.503-.914.503-1.645 3.207-2.148 4.398-4.845 5.086-7.633.55-1.92 1.19-5.08 2.015-5.95z"/>
    <path fill="#000" d="M43.34 33.61s1.238.046 2.338.41c1.054.367 1.054.595 1.466 1.053.412.457 1.42 1.142 1.237 1.828-.09.37-.32.46-.64.78-.13.14-1.14 1.24-1.37 1.37-.13.09-.32.23-.46.32l-.68.46c-.45.23-.78.37-1.28.32 0 0-1.14-.04-1.88-.82 0 0-.09-.36.1-.55 0 0-.96-.82-1.23-1.37-.27-.55-.27-1.32-.09-1.73.09-.41 1.88-1.55 2.52-2.05zm1.147 44.47l-.138 1.142s-.42.502-3.49.457c-3.12-.05-3.94-1.01-4.22-1.51l-.19-1.19s.59-.87.73-.87c1 .09 4.44 1.46 6.82 1.83.23 0 .27.09.45.13zm6.643-2.332c0 .503-.046.503-.046 1.006.55.41 1.925.64 4.536.594 3.802-.092 7.33 1.142 11.637.41l.046-.822-.413-.045-15.256-1.23-.504.09z"/>
    <path fill="#000" d="M54.474 77.348h1.146c2.474-.092 4.81.457 7.33.594 1.33-.046 2.978-.366 2.84-1.326L52.78 75.52c-.78.868-.184 1.6 1.694 1.828zM39.54 58.108c.41.273 3.206 1.92 7.74 1.69-.09.87-.045 2.56-2.06 5.53-1.008 1.462-1.88 4.022-2.062 7.267.046.73.458 1.37-.092 2.33.183.594.917 1.783 1.283 2.514.36.73.55 1.55-1.88 1.6-2.48.04-6.46-.23-5.91-2.15.27-1.01 1.05-2.06 1.14-2.47.09-.41.09-1.65.87-2.47.69-2.29.46-4.48.32-6.54-.23-2.15-.28-5.58.64-7.32zM43.8 20.86c3.252-4.343.503-7.816-4.72-6.765-2.107.41-4.214 1.874-4.352 4.524-.687.09-2.245.18-3.024 3.01-.595 2.19-.916 2.6-1.97 3.7-.687.78.046 2.38.55 3.52 1.695 3.93 6.918 4.29 10.446 7.27 1.19-.32 2.428-1.65 2.795-2.52-2.978-3.52-2.337-4.89-3.528-6.72 1.283-.46 4.215-2.24 3.802-6.03z"/>
    <path fill="#EFEFEF" d="M43.158 20.585c.183-.275.504-.87.64-1.097.047-.046.55.822.597.777 1.237-2.01 1.558-4.936.137-5.21-.32-.046-.916-.183-1.42-.366-.916-.32-1.74-.32-3.207-.05-2.016.36-4.032 1.83-4.032 3.93 0 .14 1.42.55 1.833 2.24-.688-.96-1.88-2.01-3.3-1.1-1.51.96-.732 3.15-2.748 5.44-.687.77-.595 1.69.137 3.52 1.192 2.88 6.827 4.43 9.897 7.17.733-.32 1.237-1.05 1.603-1.6-2.062-2.15-2.886-4.16-3.482-5.62-.733-1.69-1.558-2.65-3.16-3.93.824.32 1.465.64 1.83.91.414.27 1.01.32 1.56.14 1.97-.69 3.023-3.43 3.115-5.17z"/>
    <path fill="#000" d="M63.088 21.316c-.138 1.737-1.42.868-2.108.548-1.374-.594-2.75-1.005-4.352-1.005-1.604 0-3.666.13-5.452.59-2.474.68-3.207.64-4.307.09-1.1-.6-3.03-2.06-3.03-2.06s-.05.45.41 1.05c.59.73 1.92 1.64 3.71 2.24.87.27 1.56.09 2.34-.09 4.07-1.01 8.38-1.19 12 1 .18.09.82-.19 1.1-.6.36-.6-.32-1.78-.32-1.78z"/>
    <path fill="#001423" d="M42.242 38.73c.366.227.824.364 1.328.776 0 0-.412 0-.595-.183-.23-.137-.688-.548-.733-.594z"/>
    <path fill="#EFEFEF" d="M55.482 2.486c-.137-.41-1.145-1.142-3.482-1.142-2.52 0-3.253.777-3.298 1.188 0 .137-.184 1.6-.23 2.194 0 0 0 .73.046 1.828.046.73.23 1.142.32 2.102.093 1.005.368 1.645.87 2.468.23.137.414.274.643.32.92.183 2.52.228 3.39 0 .51-.137 1.15-1.005 1.29-1.782.19-.96.37-1.646.41-2.24.09-.594.14-1.92.19-2.285.14-1.005-.09-2.56-.13-2.65z"/>
    <path fill="#000" d="M50.672 58.975s2.428 1.05 8.43.137c0 0-1.695 8.5-.916 12.75 0 0 .778 1.098 6.55 3.2 0 0 2.567.64 2.475 1.92 0 0 .1.274-3.02.183-3.11-.092-6.05-.64-8.11-.64-2.06 0-4.26.09-4.62-.503-.41-.548.09-1.965.69-2.788.65-.868.46-1.508.42-3.062-.13-4.067-3.25-8.272-1.88-11.197z"/>
    <path fill="#88CE02" d="M50.168 59.752c-.32.457.045 2.194.503 3.885.46 1.69 1.47 2.696 1.7 5.484.23 2.75.28 3.11-.5 4.71s-1.01 3.06 1.7 3.11c2.71.05 4.17-.04 6.92.37s3.71.55 5.23.32c1.51-.23 1.84-.73 1.19-1.19-.64-.45-3.3-.96-4.44-1.87-1.1-.82-4.21-2.19-4.26-2.56-.13-1.23-.18-5.71.05-7.17.23-1.46.55-3.56.65-4.11.09-.55.55-1.09-.23-.91-.772.18-3.71.6-5.91.46-2.2-.14-2.422-.64-2.56-.5z"/>
    <path fill="#000" d="M51.726 73.874c.778.366 1.924.64 2.794.64 0 0-.32 1.51.183 2.422.504.915-3.665.366-3.665.366l-.183-3.245.87-.183zm12.14 3.93c.734-.23 1.238-1.05.64-1.827-.64-.777-1.19-.914-.365-.96.83-.046 3.85 1.782 3.85 1.782l-1.55 1.41-2.56-.41zM50.03 61.534c1.054.367 2.658.458 4.032.413 1.374-.046 3.436-.23 4.765-.686 1.328-.45.78.51.78.51l-.734.69s-1.74.69-4.582.64c-3.34-.04-4.35-.41-4.35-.41l.09-1.14zm.092 2.287c1.054.37 2.657.46 4.032.41 1.374-.04 3.207-.04 4.535-.54.55-.18.23.6.23.6l-.23.41s-1.79.64-4.59.6c-3.35-.04-3.94-.32-3.94-.32l-.05-1.14z" opacity=".3"/>
    <path d="M50.672 58.975s3.986 1.417 8.476.457c0 0-1.74 8.18-.962 12.386 0 0 .778 1.096 6.55 3.2 0 0 2.567.64 2.475 1.918 0 0 .1.275-3.02.183-3.11-.1-6.05-.64-8.11-.64-2.06 0-4.26.09-4.62-.51-.41-.55.09-1.97.69-2.79.65-.87.46-1.51.42-3.07-.13-4.02-3.25-8.23-1.88-11.15z"/>
    <path d="M50.672 58.975s3.986 1.37 8.476.41c0 0-1.74 8.228-.962 12.433 0 0 .778 1.096 6.55 3.2 0 0 2.567.64 2.475 1.918 0 0 .1.275-3.02.183-3.11-.1-6.09-.96-8.11-.64-2.15.36-4.26.22-4.62-.51-.32-.6.09-1.97.69-2.79.65-.87.46-1.51.42-3.07-.13-4.02-3.25-8.23-1.88-11.15z"/>
    <path fill="#000" d="M47.098 31.782c0 .32 3.574 2.102 5.544 2.468 1.97.366 6.093 0 6.734-.137l-.09.64s-4.903.73-8.66-.274c-3.757-1.01-3.345-1.24-3.345-1.24l-.18-1.47z"/>
    <path fill="#EFEFEF" d="M39.447 70.766c.55.275 2.52.778 3.802.503.18-.05 0-3.16.5-4.57.73-1.97 1.92-3.57 2.47-7.04-1.93-.19-4.13-.69-5.27-1.05-1.47 4.47-.97 8.31-1.52 12.15zm3.07 2.88c.32.09.55.457.64.23.184-.413-.32-1.19-.365-1.738v-.046c-.413-.365-3.208-.41-3.024-.23-.32.596-.825.504-1.008 1.693-.09.594.642.09 1.33.045-1.238.823-2.66 1.874-2.888 2.788-.275 1.28.184 1.645 1.558 2.33 1.19.275 2.612.32 3.71.275 1.238-.228 1.467-.822 1.1-1.645-.55-1.234-.916-2.834-1.053-3.702z"/>
    <path fill="#000" d="M43.02 14.278c1.512.868 3.62.64 4.4.594.182 0 2.015-.32 2.106-.275.183.046.183.183.183.183s-.69.366-2.25.457c-1.47.09-3.21 0-4.17-.457-1.15-.502-.28-.502-.28-.502zm15.578.868c.275.183 2.06.868 2.84 1.69.688.732.32.687.184.504-.184-.23-1.604-1.19-2.154-1.417-.55-.228-1.237-.64-1.237-.73 0-.093.37-.047.37-.047z"/>
    <path fill="#EFEFEF" d="M42.79 34.113c1.33-.092 2.705.228 3.575 1.142.458.457 1.19.96 1.1 1.417 0 .137-.275.503-.504.777-.13.18-.55.59-.68.73-.18.13-.82.64-.96.73-.13.09-.32.32-.45.36-.46.23-.96.04-1.42-.18-.46-.23.09-.28-.41-.64-1.23-.87-1.92-1.47-1.42-3.16.05-.32.55-.69 1.19-1.19z"/>
    <path fill="#000" d="M31.11 23.647c-4.125 1.645-14.617 6.855-17.594 8.455 2.474 1.554 3.62 5.3 3.986 9.095.045.366.09.685.137 1.05.04.32.09.55.13.687 0 .045 0 .137.04.182 2.7-7.358 12.37-15.127 12.73-15.72.18-.276-.23-1.464.41-2.606.82-1.463 2.43-2.103.14-1.143zm9.803 34.506c2.108-4.205 2.153-8.227 2.108-12.934 0-1.97 1.42-4.76.69-3.98-2.75 3.06-9.66 8.82-14.66 9.14 7.01-.23 9.76 3.29 11.87 7.77z" opacity=".4"/>
    <path fill="#000" d="M9.484 35.986c2.61-1.873 16.127-9.048 19.38-10.054 3.252-1.05 2.244-2.285 2.244-2.285s-13.194 5.667-21.075 10.557"/>
    <path fill="#000" d="M47.97 22.778c-1.055-.41-1.88.823-1.605 2.012.275 1.188 2.75 2.513 2.61 6.855-.09 3.565-.87 5.027-.87 5.027l-1.74-2.193s-.275-4.94-.87-5.67c-.596-.73-2.474-2.06-3.208-2.74-.733-.69.825-1.6.734-2.88-.09-1.24.78-3.71.78-3.71l4.17 3.29zm6.367 19.47c-.092 3.427.687 8.5 1.008 10.923.32 2.43.733 2.61 0 3.71-.733 1.05-1.695 2.79-1.695 2.79l-3.162-.27s2.52-3.2 2.657-3.79c.138-.59-1.282-5.12-1.282-5.12l2.474-8.22zm-6.093-31.992c.64 1.416 1.42 2.056 2.657 2.468.74.274 3.62.64 4.77-.64.51-.594.19-2.194.19-2.194l-2.61 2.102-3.52-.64-.41-1.05-1.05-.046z" opacity=".4"/>
    <path fill="#88CE02" stroke="#000" stroke-width="1.586" d="M48.518 13.41c1.19.776 4.17 1.508 4.994 1.645.825.182 2.153-.87 2.795-1.143.687-.32 1.878-.503 3.253.73.137.138-.32.733-.32.733-.047-.046-.322-.046-.688-.23-.367-.182-.687-.32-1.237-.273-2.29.274-2.658 1.05-4.673.594-2.016-.458-2.52-.823-4.49-.732"/>
    <path fill="#88CE02" d="M48.106 13.546c1.512.64 4.444 1.326 5.27 1.51.823.182 2.152-.64 2.793-1.053 1.14-.73 2.61-.137 3.29.64.46.503.64.823.64.96 0 .183-.55 0-.55 0-.32-.137-.69-.183-.97-.366-.37-.182-.74-.457-1.29-.41-2.29.273-2.75 1.05-4.72.593-1.97-.457-2.48-.868-4.58-.73"/>
    <path fill="#000" d="M41.005 56.233c-.092-.092.09-.183 0-.183-.596 0-1.42-.457-1.88-1.097-1.97-2.833-4.855-4.707-10.078-4.57-7.835.183-10.95-3.016-11.546-9.14-.32-3.337-1.23-6.582-3.11-8.41l-1.1.686c2.11 1.82 2.8 4.79 3.26 8.86.74 6.12 5.68 8.96 11.46 9.05 6 .09 8.16 1.32 10.4 4.34.74.96 1.56 1.28 2.2 1.42l.41-.96z"/>
    <path fill="#000" d="M62.263 26.846c.137.685.504 2.01 1.237 2.65.32.32.367.412.092.412s-2.29-.09-2.29-.09l-.55-.96 1.51-2.012z" opacity=".4"/>
  </g>
</svg>
