<svg xmlns="http://www.w3.org/2000/svg" width="37" height="82" viewBox="0 0 37 82">
  <g fill="none" fill-rule="evenodd">
    <path fill="#D34A47" d="M28.513 79.31l.784-13.07 2.166-3.696s-4.93 2.017-13.182 2.017c-8.25 0-13.1-1.97-13.1-1.97l2.43 4.03.86 12.7c0 1.368 4.49 2.47 10.03 2.47s10.02-1.11 10.02-2.47m-2.475-61.04l1.646-6.506 9.11-9.597L34.4.13l-9.653 10.218-1.91 7.775c-1.387-.047-2.832-.072-4.32-.072C8.353 18.05.112 19.21.112 20.64c0 1.428 8.242 2.586 18.408 2.586s18.406-1.158 18.406-2.587c0-1.06-4.47-1.96-10.885-2.37"/>
    <path fill="#FFF" d="M25.08 21.92s-.355.08-1.404.085c-1.05.005-1.794-.006-2.09-.277-.08-.072-.124-.216-.124-.314 0-.186.133-.295.3-.364l.16.25c-.07.023-.11.052-.11.082 0 .14 1.074.237 1.894.227.822-.01 1.814-.08 1.814-.22 0-.04-.075-.08-.205-.12l.158-.25c.213.062.4.19.398.41 0 .376-.48.433-.79.475"/>
    <path fill="#D34A47" d="M36.785 2.195c.23-.265-.12-.942-.777-1.513-.66-.57-1.38-.818-1.61-.553-.228.26.12.94.78 1.51.657.57 1.377.82 1.607.55m-8.71 45.19c-.216-2.08 4.547-5.09 3.324-5.19-2.64.15-3.95 3.083-5.27 6.155-.49 1.126-2.15 5.93-3.24 5.337-1.09-.59 1.41-4.54 2.11-6.885-.81.59-3.777 2.894-4.54.736-1.23 1.043-3.855 1.61-3.558-1.133-.654 1.16-2.12 2.777-3.88 2.106-2.31-.886 1.34-8.25 2.25-7.88.91.37-.186 2.05-.47 2.7-.63 1.435-1.357 3.237-.87 3.606.83.632 3.09-2.39 3.142-2.46.422-.558 1.627-4.214 2.6-3.794.97.42-2.424 5.246-1.155 6.205.256.193 1.303-.12 1.94-.81.412-.445.27-1.432 1.644-4.71s2.6-7.357 3.54-7.046c.94.31.165 2.404-.173 3.185-1.585 3.663-4.33 9.72-3.035 9.26 1.296-.46 1.97-.487 3.236-1.97 1.268-1.482 1.21-3.924 2.054-3.872.844.05.702.832.497 1.43.83-.95 3.94-2.955 4.69-.97.89 2.35-4.445 5.74-3.115 5.566 1.296-.17 3.398-1.5 4.295-2.71l2.47-22.204s-2.48 2.06-18.29 2.06c-15.8.01-18.03-2-18.03-2l2.1 20.267c1.116-3.174 3.767-9.59 7.944-9.375 1.9.1 4.437 3.758 2.264 3.88-.92.055-1.014-1.824-2.103-2.1-.786-.2-1.88.44-2.587 1.13-1.41 1.38-4.44 6.828-4.04 9.543.51 3.46 4.78-1.204 5.5-2.588.51-.98.85-3.87 1.97-3.57 1.11.3-.096 3.282-.902 5.92-.91 2.96-1.385 6.09-2.52 5.73-1.133-.36.715-4.18.648-4.85-1.066.98-3.03 3.473-5.545 2.24l1.3 12.59s3.47 2.74 13.925 2.74 14.054-2.7 14.054-2.7l1.62-14.576c-1.33 1.292-5.53 3.586-5.8 1"/>
  </g>
</svg>
