<svg xmlns="http://www.w3.org/2000/svg" width="56" height="79" viewBox="0 0 56 79">
  <g fill="none" fill-rule="evenodd">
    <path fill="#E44D26" d="M55.903 15.48L50.82 72.434 27.965 78.77l-22.79-6.327L.095 15.48h55.808"/>
    <path fill="#F16529" d="M28 73.927l18.466-5.12 4.345-48.67H28v53.79"/>
    <path fill="#EBEBEB" d="M18.117 34.11H28v-6.986H10.482l.167 1.874 1.71 19.252H28v-6.986h-9.245l-.638-7.154m1.573 17.634h-7.01l.98 10.97 14.31 3.972.032-.01V59.41l-.03.008-7.78-2.1-.5-5.572"/>
    <path fill="#000" d="M5.29 0h3.55v3.508h3.248V0h3.55v10.622h-3.55V7.065H8.84v3.557H5.29V0m15.017 3.522H17.18V0h9.804v3.522h-3.127v7.1h-3.55v-7.1M28.54 0h3.702l2.277 3.732L36.79 0h3.704v10.622H36.96V5.357l-2.44 3.777h-.062l-2.444-3.777v5.265H28.54V0m13.725 0h3.55v7.11h4.994v3.512h-8.55V0"/>
    <path fill="#FFF" d="M27.976 48.25h8.603l-.818 9.06-7.792 2.104v7.268l14.323-3.97.105-1.18L44.04 43.14l.17-1.876H27.97v6.986m.002-14.157v.017H44.85l.14-1.57.32-3.542.166-1.874h-17.5v6.97"/>
  </g>
</svg>
