<svg xmlns="http://www.w3.org/2000/svg" width="65" height="65" viewBox="0 0 65 65">
  <g fill="none" fill-rule="evenodd">
    <path fill="#F7DF1E" d="M0 0h65v65H0"/>
    <path fill="#000" d="M17.09 54.32l4.975-3.012c.96 1.702 1.833 3.14 3.927 3.14 2.007 0 3.272-.784 3.272-3.838V29.84h6.11v20.857c0 6.326-3.71 9.206-9.12 9.206-4.887 0-7.723-2.53-9.163-5.585m21.6-.654l4.976-2.88c1.31 2.14 3.01 3.71 6.02 3.71 2.532 0 4.146-1.266 4.146-3.01 0-2.096-1.656-2.838-4.45-4.06l-1.526-.654c-4.407-1.876-7.33-4.232-7.33-9.206 0-4.58 3.49-8.072 8.944-8.072 3.884 0 6.676 1.353 8.683 4.887l-4.755 3.05c-1.047-1.876-2.18-2.618-3.926-2.618-1.79 0-2.925 1.135-2.925 2.618 0 1.834 1.135 2.576 3.752 3.71l1.526.655c5.193 2.225 8.116 4.494 8.116 9.598 0 5.498-4.32 8.51-10.124 8.51-5.673 0-9.338-2.706-11.126-6.24"/>
  </g>
</svg>
