<svg xmlns="http://www.w3.org/2000/svg" width="57" height="58" viewBox="0 0 57 58">
  <g fill="none" fill-rule="evenodd">
    <path fill="#F9AE41" d="M56.926 7.918c0-4.143-3.36-7.502-7.502-7.502-3.783 0-6.91 2.8-7.425 6.442l-.08-.04C35.79 4.05 30.62 8.95 30.62 8.95L16.95 22.69l5.402 5.2 11.003-10.81c5.137-5.138 7.935-1.66 7.935-1.66 3.867 3.267.133 7.134.133 7.134l5.534 5.335c4.52-4.89 4.782-9.15 3.408-12.53 3.7-.47 6.56-3.62 6.56-7.45"/>
    <path fill="#EE4035" d="M50.435 42.418l.04-.076c2.767-6.135-2.134-11.303-2.134-11.303L34.61 17.37l-5.2 5.4 10.808 11.003c5.137 5.138 1.66 7.935 1.66 7.935-3.267 3.868-7.135.134-7.135.134l-5.334 5.534c4.88 4.52 9.14 4.78 12.53 3.408.46 3.698 3.61 6.56 7.44 6.56 4.14 0 7.5-3.358 7.5-7.5 0-3.784-2.8-6.91-6.44-7.426"/>
    <path fill="#4F91CD" d="M34.72 29.622l-11 10.81c-5.138 5.137-7.936 1.66-7.936 1.66-3.867-3.268-.133-7.135-.133-7.135l-5.53-5.335c-4.52 4.88-4.78 9.142-3.41 12.53-3.69.464-6.56 3.617-6.56 7.44 0 4.144 3.36 7.502 7.5 7.502 3.79 0 6.91-2.8 7.43-6.44l.08.04c6.133 2.766 11.3-2.134 11.3-2.134l13.67-13.737-5.402-5.2"/>
    <path fill="#7AC043" d="M16.86 23.738c-5.137-5.138-1.66-7.935-1.66-7.935 3.268-3.868 7.135-.134 7.135-.134l5.335-5.54c-4.88-4.52-9.14-4.78-12.53-3.41C14.677 3.02 11.524.16 7.7.16 3.556.163.198 3.52.198 7.663c0 3.785 2.8 6.91 6.44 7.427l-.04.075c-2.767 6.133 2.135 11.3 2.135 11.3L22.47 40.14l5.2-5.4-10.81-11.003"/>
  </g>
</svg>
