<svg xmlns="http://www.w3.org/2000/svg" width="109" height="25" viewBox="0 0 109 25">
  <g fill="none" fill-rule="evenodd">
    <path fill="#1A1918" d="M104.256 1.84l4.56.026-9.17 12.424c-.225.304-.566.63-.74 1.036-.437 1.02-.887 3.254-.887 3.254l-4.18.02s.65-2.33.62-3.57c-.03-1.084-.58-2.167-.89-3.254-.32-1.1-.74-3.254-.74-3.254h4.29l.59 2.367 6.53-9.05"/>
    <path fill="#1A1918" d="M95.62 4.264c.843.507 1.36 3.305 1.36 3.305s-4.404.06-6.8.06h-2.07l-2.517 10.95H81.75s2.39-11.9 2.956-14.06c.183-.7 1.254-.58 3.063-.58h2.89c1.86 0 4.04-.24 4.96.31M77.71 9.59s.12-.7-.407-1.515c-.45-.694-.864-.855-2.047-.892-3.34-.105-3.277 2.37-3.277 2.37l5.73.038zm3.626-2.83c.49 1.763-.444 5.913-.444 5.913s-4.874-.08-7.544 0c-.83.026-1.823-.09-2.07.296-.348.54.127 1.37.53 1.72.462.4 1.364.45 1.688.49 2.17.27 6.706.07 6.706.07l-.785 3.48s-6.41.32-9.617-.45c-.63-.15-1.225-.458-1.626-.89-.11-.12-.204-.28-.307-.42-.085-.11-.326-.477-.434-.766-.732-1.95.086-5.69.887-7.69.094-.234.21-.53.334-.78.154-.31.284-.663.407-.85.09-.13.19-.21.27-.33.1-.146.22-.285.33-.41.3-.342.63-.585 1.04-.886 1.338-1 3.755-1.778 6.66-1.48 1.09.112 2.74.502 3.55 1.627.214.3.32.896.44 1.33zM63.7 3.935l3.73-.023s-2.08 9.86-3.136 14.666h-4.29c-2.998 0-5.668.37-6.804-1.776-1.1-2.084-.05-5.51.446-7.84.35-1.647 1.084-5.015 1.084-5.015l3.863-.037s-1.092 5.244-1.546 7.862c-.163.938-.498 1.82-.148 2.514.33.66.79.707 2.21.74.45.01 1.92 0 1.92 0l2.67-11.09m-17.46 7.1c.39-1.39.96-2.89.884-4.14-.08-1.34-1.2-2.558-1.923-2.81-2.18-.77-4.22.303-5.03 1.18-1.05 1.136-1.403 2.463-1.774 4.29-.28 1.356-.505 2.787 0 3.845.89 1.87 3.665 1.47 6.654 1.48.45-1.19.81-2.52 1.19-3.84zm5.173-5.474c.426 3.097-1.208 6.515-2.334 9.488 1.15.105 2.155-.015 2.227.07.076.11-.77 3.55-1.063 3.558-.91.022-3.93.047-5.19.047-4.105 0-7.95.268-9.91-1.775-.793-.83-1.343-2.253-1.476-3.254-.22-1.673.055-3.513.442-5.03.35-1.37.8-2.663 1.48-3.846 1.728-3.01 4.73-5.246 9.763-4.73.975.1 2.377.53 3.253 1.036.06.036.273.204.32.234 1.185.753 2.263 2.55 2.49 4.204zm-18.17-1.61c-.248 1.133-.497 2.415-.76 3.534h-4.14c.32-1.24.566-2.472.887-3.55 1.324 0 2.557.017 4.01.017M28.2 8.52h3.993c-.522 2.89-1.555 7.553-2.366 10.8-.51 2.03-.85 3.512-2.22 4.584-.13.096-.2.05-.3.148-.26.24-1.43.52-2.07.59-1.06.115-2.25.016-3.54-.01.34-1.238.72-2.725 1.02-3.834 3.153.38 3.233-2.603 3.844-5.475.354-1.66 1.425-6.138 1.628-6.804"/>
    <g fill="#21609B">
      <path d="M18.885 16.066l-.085.22c-1.46 2.84-4.043 4.584-7.73 4.66-1.722.036-3.364-.406-4.436-.887-2.315-1.04-4.262-2.97-5.325-5.03-1.53-2.96-1.8-7.07 1.37-10.14.05 0-.39.66-.34.66l-.09.28c-2.28 7.17 4.76 13.3 11.6 12.6 1.645-.17 3.74-1.07 5.03-2.368"/>
      <path d="M14.744 13.107c1.72.012 3.52-.793 4.585-1.923-.94 2.366-3.63 3.886-7.25 3.402-3.03-.405-5.92-3.453-6.21-6.508-.22-2.223.55-3.55 1.83-5.16-.45.843-.61 1.492-.65 1.906-.49 4.81 3.84 8.258 7.69 8.283"/>
      <path d="M19.156 7.134c-.268.614-1.81 1.774-2.49 1.92-2.694.573-4.42-.705-5.324-2.16-.135-.217-.383-.81-.428-.96-.35-1.193-.19-2.996.857-3.93-.31.888-.36 1.92-.19 2.59.1.405.41 1.112.71 1.557.56.81.91 1.01 1.63 1.44.33.2.67.35.82.39.68.2 2.12.73 4.43-.84"/>
    </g>
  </g>
</svg>
