<svg xmlns="http://www.w3.org/2000/svg" width="70" height="79" viewBox="0 0 70 79">
  <path fill="#539E43" fill-rule="evenodd" d="M35 78.604c-1.087 0-2.1-.29-3.043-.794l-9.638-5.705c-1.45-.795-.73-1.083-.29-1.228 1.95-.65 2.31-.794 4.34-1.95.215-.144.505-.072.722.073l7.392 4.405c.29.144.65.144.87 0l28.91-16.682c.29-.144.436-.433.436-.794V22.64c0-.362-.145-.65-.435-.796L35.363 5.234c-.29-.143-.652-.143-.87 0L5.58 21.844c-.29.146-.435.507-.435.796v33.29c0 .288.145.65.435.793l7.898 4.55c4.276 2.166 6.957-.36 6.957-2.89V25.528c0-.433.362-.866.87-.866H25c.435 0 .87.362.87.867v32.85c0 5.702-3.116 9.024-8.55 9.024-1.668 0-2.972 0-6.668-1.804l-7.61-4.333C1.16 60.19 0 58.167 0 56V22.71c0-2.165 1.16-4.187 3.043-5.27L31.957.757c1.81-1.01 4.275-1.01 6.086 0l28.914 16.68C68.84 18.524 70 20.547 70 22.712V56c0 2.168-1.16 4.19-3.043 5.273l-28.914 16.68c-.942.434-2.03.65-3.043.65zm8.913-22.892c-12.68 0-15.29-5.777-15.29-10.687 0-.433.363-.867.87-.867h3.768c.44 0 .8.29.8.722.58 3.828 2.25 5.705 9.93 5.705 6.09 0 8.7-1.372 8.7-4.62 0-1.88-.723-3.25-10.216-4.19-7.9-.794-12.826-2.527-12.826-8.81 0-5.85 4.928-9.315 13.19-9.315 9.274 0 13.84 3.177 14.42 10.11 0 .216-.073.433-.218.65-.146.144-.363.288-.58.288h-3.77c-.36 0-.723-.288-.796-.65-.87-3.97-3.116-5.27-9.06-5.27-6.666 0-7.463 2.31-7.463 4.043 0 2.1.944 2.75 9.93 3.9 8.914 1.16 13.117 2.82 13.117 9.03-.07 6.36-5.29 9.97-14.49 9.97z"/>
</svg>
