<?xml version="1.0" encoding="UTF-8" standalone="no"?>
<svg width="70px" height="76px" viewBox="0 0 70 76" version="1.1" xmlns="http://www.w3.org/2000/svg" xmlns:xlink="http://www.w3.org/1999/xlink">
    <!-- Generator: Sketch 3.8.3 (29802) - http://www.bohemiancoding.com/sketch -->
    <title>Photoshop</title>
    <desc>Created with Sketch.</desc>
    <defs>
        <linearGradient x1="24.3017667%" y1="-5.22247458%" x2="62.6352%" y2="77.1506102%" id="linearGradient-1">
            <stop stop-color="#A0CBFF" offset="0%"></stop>
            <stop stop-color="#A0CBFE" offset="39.41%"></stop>
            <stop stop-color="#8EC2FC" offset="58.3%"></stop>
            <stop stop-color="#83BCFB" offset="78.38%"></stop>
            <stop stop-color="#7FBAFB" offset="100%"></stop>
        </linearGradient>
        <linearGradient x1="35.6212047%" y1="1.40905023%" x2="61.3858984%" y2="88.477318%" id="linearGradient-2">
            <stop stop-color="#090058" offset="0%"></stop>
            <stop stop-color="#070033" offset="100%"></stop>
        </linearGradient>
        <linearGradient x1="-43.520449%" y1="-70.0600823%" x2="98.0162706%" y2="129.939918%" id="linearGradient-3">
            <stop stop-color="#A0CBFF" offset="0%"></stop>
            <stop stop-color="#A0CBFE" offset="39.41%"></stop>
            <stop stop-color="#8EC2FC" offset="58.3%"></stop>
            <stop stop-color="#83BCFB" offset="78.38%"></stop>
            <stop stop-color="#7FBAFB" offset="100%"></stop>
        </linearGradient>
        <linearGradient x1="-91.0413811%" y1="-153.083528%" x2="85.6115237%" y2="105.378316%" id="linearGradient-4">
            <stop stop-color="#A0CBFF" offset="0%"></stop>
            <stop stop-color="#A0CBFE" offset="39.41%"></stop>
            <stop stop-color="#8EC2FC" offset="58.3%"></stop>
            <stop stop-color="#83BCFB" offset="78.38%"></stop>
            <stop stop-color="#7FBAFB" offset="100%"></stop>
        </linearGradient>
    </defs>
    <g id="Welcome" stroke="none" stroke-width="1" fill="none" fill-rule="evenodd">
        <g id="Profile" transform="translate(-449.000000, -1707.000000)">
            <g id="Tools" transform="translate(344.000000, 1705.000000)">
                <g id="Photoshop" transform="translate(105.000000, 2.000000)">
                    <g id="Layer_2_1_" fill="url(#linearGradient-1)">
                        <rect id="Rectangle-path" x="0" y="0" width="70" height="76"></rect>
                    </g>
                    <g id="Layer_2" transform="translate(5.366667, 5.925424)" fill="url(#linearGradient-2)">
                        <rect id="Rectangle-path" x="0.200433333" y="0.118250847" width="58.8662667" height="63.9126508"></rect>
                    </g>
                    <g id="Layer_4" transform="translate(16.800000, 21.125424)">
                        <g id="Group">
                            <path d="M0.1162,0.294725424 C0.1162,0.294725424 4.54206667,0.166169492 8.18533333,0.166169492 C11.8668667,0.166169492 14.4918667,1.12248136 16.2542333,2.80298305 C17.9386667,4.39099661 19.0745333,7.09814237 19.0745333,10.179878 C19.0745333,13.2616136 18.2126,15.7832678 16.6455333,17.5565153 C14.6087667,19.8445017 12.2353,21.1985898 8.18533333,21.3861424 C7.0665,21.4379254 6.03096667,21.4502915 6.03096667,21.4502915 L6.03096667,31.4678644 L0.115966667,31.4678644 L0.1162,0.294725424 L0.1162,0.294725424 L0.1162,0.294725424 Z M6.03073333,15.8999729 C6.67333333,15.9690169 7.07606667,15.9357831 8.02853333,15.9231593 C11.2014,15.8811661 13.1593,13.7508475 13.1593,10.5292203 C13.1593,7.63503729 11.5448667,5.25868475 8.49893333,5.13553898 C7.2849,5.08658983 6.03073333,5.13553898 6.03073333,5.13553898 L6.03073333,15.8999729 L6.03073333,15.8999729 Z" id="Shape" fill="url(#linearGradient-3)"></path>
                            <path d="M21.3318,24.4887458 C22.5239,25.2964068 25.3369667,26.5059661 27.2545,26.5059661 C29.2135667,26.5059661 30.0225333,25.7436475 30.0225333,24.5552136 C30.0225333,23.3652339 29.3836667,22.1152271 26.9553667,21.2114712 C22.6529333,19.5938305 20.9916,17.6575051 21.0345333,14.9472678 C21.0345333,10.5699254 24.3567333,7.28775593 29.5110667,7.28775593 C31.9393667,7.28775593 33.8788333,8.16420339 35.1558667,8.87731525 L35.1558667,14.1308475 C34.2181,13.5594305 31.5130667,12.283661 29.7243333,12.283661 C28.1474667,12.283661 27.2533333,12.9970305 27.2533333,14.1854644 C27.2533333,15.2798644 28.0632333,15.8507661 30.6189333,16.8503593 C34.58,18.3724203 36.2413333,20.6075932 36.2835667,24.0327458 C36.2835667,28.3621695 33.2609667,31.8048407 27.2533333,31.5959051 C25.1918333,31.5242847 22.9077333,30.6246508 21.3315667,29.6742644 L21.3315667,24.4887458 L21.3318,24.4887458 Z" id="Shape" fill="url(#linearGradient-4)"></path>
                        </g>
                    </g>
                </g>
            </g>
        </g>
    </g>
</svg>