<svg xmlns="http://www.w3.org/2000/svg" width="93" height="49" viewBox="0 0 93 49">
  <defs>
    <radialGradient id="a" cx="30.02%" cy="17.584%" r="141.819%" fx="30.02%" fy="17.584%">
      <stop stop-color="#FFF" offset="0%"/>
      <stop stop-color="#4C6B97" offset="50%"/>
      <stop stop-color="#231F20" offset="100%"/>
    </radialGradient>
  </defs>
  <g fill="none" fill-rule="evenodd">
    <ellipse cx="46.098" cy="24.196" fill="url(#a)" rx="46.098" ry="24.196"/>
    <ellipse cx="46.098" cy="24.196" fill="#6181B6" rx="44.297" ry="22.399"/>
    <path fill="#FFF" d="M55.066 31.46l2.197-11.29c.504-2.553.072-4.46-1.225-5.645-1.26-1.15-3.42-1.726-6.59-1.726H45.63l1.08-5.61c.036-.22 0-.43-.144-.61s-.324-.26-.54-.26h-5.258c-.36 0-.648.25-.72.57l-2.34 11.97c-.217-1.37-.72-2.52-1.586-3.45-1.548-1.768-3.96-2.667-7.24-2.667h-10.12c-.36 0-.647.254-.72.58l-4.717 24.31c-.036.215 0 .43.144.61.14.18.32.252.54.252h5.29c.36 0 .64-.253.72-.577l1.15-5.86h3.93c2.05 0 3.81-.216 5.15-.647 1.4-.46 2.66-1.22 3.78-2.26.9-.822 1.66-1.76 2.23-2.77l-.94 4.86c-.04.216 0 .43.14.61s.32.253.54.253h5.26c.36 0 .65-.253.72-.576l2.59-13.3h3.6c1.55 0 1.98.286 2.123.43.11.106.325.54.073 1.87l-2.09 10.75c-.036.214 0 .43.144.61.14.18.32.25.54.25h5.4c.325-.107.613-.36.685-.68zM30.72 22.11c-.324 1.69-.936 2.913-1.837 3.596-.9.684-2.377 1.043-4.32 1.043H22.22l1.693-8.71h3.026c2.23 0 3.13.47 3.49.86.47.57.57 1.69.29 3.2zm46.82-6.686c-1.55-1.762-3.963-2.66-7.24-2.66H60.108c-.36 0-.65.25-.72.575L54.67 37.6c-.036.216 0 .43.144.61s.324.253.54.253h5.294c.36 0 .648-.253.72-.577l1.153-5.86h3.93c2.06 0 3.82-.216 5.15-.647 1.41-.47 2.67-1.22 3.78-2.27.94-.87 1.73-1.84 2.31-2.88.58-1.048 1.01-2.198 1.26-3.45.61-3.13.15-5.57-1.4-7.37zm-5.512 6.687c-.324 1.69-.936 2.92-1.836 3.6-.9.69-2.377 1.05-4.322 1.05h-2.34l1.692-8.7h3.025c2.233 0 3.133.47 3.493.86.504.58.612 1.69.288 3.2z"/>
    <path fill="#000004" d="M26.94 17.33c2.015 0 3.348.36 4.032 1.114.684.755.83 2.013.468 3.81-.36 1.87-1.08 3.237-2.124 4.028-1.045.79-2.63 1.186-4.754 1.186h-3.206l1.98-10.14h3.603zM14.045 37.75h5.294l1.26-6.435h4.53c2.01 0 3.63-.216 4.93-.647 1.29-.43 2.45-1.115 3.53-2.12.9-.828 1.62-1.727 2.16-2.698.54-.97.93-2.05 1.15-3.236.572-2.876.14-5.105-1.26-6.723-1.41-1.61-3.64-2.4-6.7-2.4H18.76l-4.717 24.27zm26.76-30.703h5.257l-1.26 6.435h4.68c2.955 0 4.97.504 6.088 1.546 1.116 1.043 1.44 2.697 1.008 4.998l-2.197 11.29h-5.33l2.09-10.75c.26-1.223.15-2.05-.25-2.482-.39-.43-1.29-.683-2.63-.683h-4.21l-2.7 13.92h-5.26l4.72-24.27zm27.44 10.283c2.018 0 3.35.36 4.034 1.114.68.755.83 2.013.47 3.81-.37 1.87-1.09 3.237-2.13 4.028-1.05.79-2.63 1.186-4.76 1.186h-3.2l1.98-10.14h3.6zm-12.89 20.42h5.293l1.26-6.435h4.538c2.017 0 3.638-.216 4.934-.647 1.297-.43 2.45-1.115 3.53-2.12.9-.828 1.62-1.727 2.16-2.698.54-.97.937-2.05 1.153-3.236.576-2.876.144-5.105-1.26-6.723-1.405-1.61-3.638-2.4-6.7-2.4h-10.19l-4.72 24.27z"/>
  </g>
</svg>
