<svg xmlns="http://www.w3.org/2000/svg" width="70" height="63" viewBox="0 0 70 63">
  <g fill="none" fill-rule="evenodd">
    <path fill="#FFF" d="M.206 31.377c0 5.254 5.13 10.16 13.22 12.923-1.616 8.132-.29 14.686 4.138 17.24 4.55 2.624 11.332.807 17.768-4.818 6.273 5.398 12.614 7.523 17.037 4.962 4.54-2.633 5.93-9.63 4.27-18.016 8.42-2.786 13.13-6.968 13.13-12.29 0-5.133-5.14-9.573-13.12-12.32 1.79-8.732.27-15.127-4.34-17.786-4.45-2.563-10.86-.33-17.23 5.21C28.47.602 22.12-1.19 17.51 1.475 13.07 4.045 11.8 10.72 13.42 19 5.61 21.73.21 26.27.21 31.38z"/>
    <path fill="#53C1DE" d="M54.968 21.786c-.64-.22-1.305-.43-1.99-.627.113-.46.216-.92.308-1.36 1.506-7.31.52-13.2-2.84-15.14-3.223-1.86-8.495.08-13.818 4.71-.512.44-1.026.91-1.54 1.41-.34-.33-.682-.64-1.023-.95-5.58-4.96-11.172-7.04-14.53-5.1-3.22 1.86-4.173 7.39-2.818 14.32.13.67.284 1.35.457 2.04-.792.22-1.556.46-2.287.72-6.54 2.28-10.72 5.85-10.72 9.56 0 3.83 4.486 7.67 11.3 10 .537.18 1.094.35 1.67.52-.187.75-.35 1.49-.486 2.2-1.29 6.804-.28 12.21 2.93 14.06 3.32 1.914 8.89-.05 14.31-4.79.43-.376.86-.77 1.29-1.19.56.54 1.12 1.05 1.67 1.525 5.25 4.52 10.44 6.343 13.65 4.485 3.32-1.92 4.39-7.724 3-14.79-.1-.54-.23-1.09-.37-1.65.39-.115.78-.234 1.15-.36 7.09-2.345 11.7-6.14 11.7-10.02 0-3.72-4.31-7.32-10.98-9.615z"/>
    <path fill="#FFF" d="M53.43 38.918c-.336.112-.683.22-1.036.324-.782-2.475-1.838-5.107-3.13-7.827 1.233-2.655 2.248-5.253 3.008-7.713.632.183 1.245.376 1.837.58 5.71 1.968 9.2 4.878 9.2 7.12 0 2.39-3.77 5.49-9.89 7.516zm-2.536 5.028c.618 3.123.706 5.947.297 8.154-.36 1.984-1.1 3.306-2.02 3.836-1.94 1.127-6.11-.338-10.6-4.202-.51-.443-1.03-.916-1.55-1.417 1.74-1.904 3.48-4.117 5.18-6.576 2.99-.26 5.81-.69 8.37-1.29.13.51.24 1.01.34 1.5zM25.232 55.74c-1.902.673-3.418.692-4.334.164-1.948-1.124-2.76-5.463-1.653-11.283.126-.66.277-1.35.45-2.05 2.53.56 5.333.97 8.327 1.21 1.71 2.41 3.5 4.62 5.303 6.55-.394.38-.786.75-1.177 1.09-2.397 2.1-4.8 3.58-6.916 4.33zM16.32 38.904c-3.013-1.03-5.5-2.368-7.207-3.828-1.532-1.313-2.306-2.616-2.306-3.673 0-2.25 3.354-5.12 8.95-7.07.677-.236 1.388-.46 2.125-.67.774 2.516 1.788 5.146 3.012 7.804-1.24 2.7-2.27 5.37-3.05 7.915-.525-.15-1.034-.31-1.524-.477zm2.987-20.336c-1.16-5.934-.39-10.41 1.55-11.534 2.068-1.196 6.638.51 11.456 4.787.308.28.617.56.927.86-1.795 1.93-3.57 4.12-5.264 6.52-2.905.27-5.687.7-8.244 1.28-.16-.64-.303-1.28-.425-1.9zm26.65 6.58c-.61-1.055-1.238-2.086-1.878-3.09 1.97.25 3.86.58 5.63.986-.53 1.707-1.2 3.49-1.98 5.32-.56-1.064-1.16-2.136-1.78-3.215zM35.09 14.563c1.217 1.32 2.437 2.792 3.636 4.39-1.21-.057-2.432-.087-3.666-.087-1.22 0-2.436.03-3.637.085 1.2-1.58 2.43-3.05 3.667-4.38zM24.152 25.166c-.61 1.06-1.192 2.126-1.744 3.195-.77-1.82-1.426-3.61-1.963-5.34 1.762-.39 3.642-.71 5.6-.96-.648 1.01-1.28 2.05-1.893 3.11zm1.95 15.773c-2.023-.23-3.93-.54-5.694-.92.546-1.76 1.218-3.6 2.003-5.46.56 1.06 1.14 2.13 1.76 3.19.63 1.08 1.28 2.14 1.94 3.17zm9.06 7.48c-1.25-1.35-2.498-2.85-3.716-4.45 1.183.05 2.39.07 3.614.07 1.26 0 2.505-.03 3.73-.09-1.203 1.63-2.418 3.13-3.627 4.46zm12.6-13.96c.825 1.88 1.52 3.7 2.074 5.43-1.792.41-3.726.73-5.764.98.642-1.02 1.275-2.07 1.897-3.15.62-1.1 1.22-2.19 1.79-3.28zm-4.08 1.95c-.965 1.67-1.957 3.27-2.963 4.78-1.84.13-3.73.2-5.66.2-1.93 0-3.8-.06-5.6-.18-1.05-1.53-2.06-3.13-3.02-4.79-.96-1.66-1.84-3.32-2.64-4.98.8-1.67 1.67-3.33 2.63-4.98.95-1.66 1.95-3.25 2.99-4.77 1.84-.14 3.72-.22 5.62-.22 1.91 0 3.8.072 5.63.212 1.02 1.51 2.02 3.1 2.97 4.753.97 1.672 1.86 3.33 2.66 4.956-.8 1.653-1.69 3.33-2.657 5zm5.445-29.47c2.07 1.2 2.873 6.01 1.573 12.32-.082.4-.175.81-.277 1.22-2.563-.59-5.347-1.03-8.26-1.31-1.698-2.42-3.458-4.62-5.224-6.52.47-.46.94-.89 1.42-1.3 4.56-3.97 8.82-5.54 10.76-4.42z"/>
    <path fill="#53C1DE" d="M35.06 25.885c3.047 0 5.518 2.47 5.518 5.517s-2.47 5.517-5.518 5.517c-3.047 0-5.517-2.47-5.517-5.52 0-3.05 2.47-5.52 5.517-5.52"/>
  </g>
</svg>
