<svg xmlns="http://www.w3.org/2000/svg" width="70" height="53" viewBox="0 0 70 53">
  <path fill="#CD6799" fill-rule="evenodd" d="M60.233 30.22c-2.435.01-4.552.598-6.324 1.465-.65-1.288-1.31-2.435-1.42-3.277-.13-.982-.28-1.58-.13-2.754.15-1.173.84-2.843.83-2.97-.02-.128-.16-.728-1.56-.74-1.41-.013-2.62.267-2.76.637-.14.37-.41 1.22-.59 2.08-.25 1.28-2.81 5.83-4.28 8.21-.47-.93-.88-1.74-.97-2.39-.13-.98-.28-1.58-.13-2.75.15-1.17.84-2.84.83-2.97-.02-.13-.16-.72-1.56-.74-1.41-.01-2.62.27-2.76.64-.14.37-.29 1.24-.59 2.08-.29.84-3.7 8.44-4.59 10.41-.46 1.01-.86 1.81-1.14 2.36 0 0-.01.04-.05.1-.24.47-.38.73-.38.73v.02c-.19.34-.4.66-.5.66-.08 0-.22-.91.02-2.16.51-2.64 1.72-6.74 1.71-6.88 0-.07.23-.79-.79-1.16-.99-.37-1.35.24-1.44.24-.09 0-.15.22-.15.22s1.11-4.62-2.118-4.62c-2.01 0-4.79 2.21-6.17 4.2-.864.48-2.713 1.48-4.69 2.57-.75.42-1.53.84-2.254 1.23-.05-.05-.1-.11-.15-.16-3.9-4.17-11.117-7.113-10.81-12.71.115-2.04.816-7.4 13.86-13.9C29.915 2.6 38.46 4.068 39.94 7.32c2.114 4.64-4.58 13.26-15.67 14.51-4.236.475-6.454-1.16-7.015-1.77-.585-.636-.674-.674-.89-.547-.355.19-.125.763 0 1.095.334.87 1.7 2.4 4.006 3.15 2.04.665 7 1.035 13.007-1.29 6.72-2.6 11.976-9.83 10.43-15.883C42.3.38 32.1-1.645 22.447 1.785c-5.737 2.04-11.96 5.25-16.437 9.44C.69 16.19-.15 20.51.19 22.325 1.428 28.75 10.29 32.93 13.834 36.03c-.178.11-.344.19-.484.27-1.773.88-8.53 4.42-10.213 8.15-1.913 4.24.306 7.27 1.772 7.68 4.55 1.26 9.23-1.004 11.74-4.753 2.51-3.75 2.2-8.62 1.04-10.85-.02-.025-.03-.05-.05-.076.46-.26.93-.54 1.39-.81.9-.53 1.8-1.03 2.56-1.44-.44 1.19-.76 2.6-.91 4.64-.19 2.4.79 5.51 2.08 6.73.57.54 1.25.55 1.68.55 1.5 0 2.18-1.25 2.93-2.73.92-1.81 1.74-3.91 1.74-3.91s-1.03 5.69 1.77 5.69c1.02 0 2.05-1.32 2.51-2v.01l.07-.12.16-.27v-.02c.41-.71 1.33-2.33 2.69-5.02 1.76-3.47 3.45-7.8 3.45-7.8s.15 1.06.68 2.82c.31 1.04.94 2.17 1.45 3.27-.41.58-.67.89-.67.89l.01.02c-.338.44-.69.91-1.09 1.37-1.39 1.66-3.05 3.56-3.28 4.11-.27.65-.206 1.126.304 1.508.37.28 1.03.32 1.71.28 1.25-.09 2.13-.4 2.56-.59.672-.244 1.462-.614 2.202-1.16 1.363-1.01 2.19-2.45 2.115-4.35-.04-1.045-.38-2.09-.805-3.07.13-.18.24-.36.37-.536 2.153-3.15 3.824-6.61 3.824-6.61s.15 1.06.675 2.82c.253.89.78 1.86 1.24 2.806-2.03 1.645-3.28 3.56-3.73 4.81-.81 2.32-.18 3.36 1 3.603.536.12 1.3-.14 1.86-.38.716-.23 1.56-.623 2.36-1.21 1.365-1.004 2.68-2.41 2.6-4.31-.036-.864-.266-1.72-.585-2.55 1.73-.71 3.94-1.11 6.77-.78 6.07.72 7.27 4.5 7.04 6.1-.23 1.595-1.5 2.46-1.92 2.73-.42.268-.56.357-.52.55.05.28.257.266.61.215.5-.09 3.19-1.29 3.306-4.22.19-3.75-3.38-7.84-9.69-7.802zm-46.82 15.784c-2.014 2.193-4.82 3.022-6.03 2.32-1.3-.752-.79-3.99 1.683-6.31 1.504-1.417 3.442-2.73 4.73-3.533.293-.17.727-.43 1.25-.75l.14-.07.306-.19c.905 3.32.038 6.24-2.08 8.54zm14.664-9.97c-.702 1.707-2.168 6.08-3.06 5.838-.766-.204-1.237-3.52-.154-6.795.55-1.645 1.71-3.61 2.385-4.374 1.096-1.224 2.308-1.632 2.6-1.135.37.65-1.338 5.394-1.77 6.465zm12.1 5.787c-.294.16-.574.26-.702.18-.09-.05.128-.25.128-.25s1.517-1.63 2.116-2.37c.34-.43.75-.94 1.18-1.51v.17c0 1.95-1.89 3.27-2.73 3.8zm9.333-2.12c-.217-.15-.178-.66.548-2.25.28-.62.944-1.67 2.08-2.67.126.41.215.81.203 1.18-.01 2.46-1.77 3.38-2.83 3.76z"/>
</svg>
