<svg xmlns="http://www.w3.org/2000/svg" width="70" height="70" viewBox="0 0 70 70">
  <g fill="none" fill-rule="evenodd">
    <path fill="#E38B26" d="M70 17.5L35.18 69.397 0 17.5l12.07-14L22.93 0h24.14l10.86 3.5L70 17.5"/>
    <path fill="#ECC13E" d="M35.18 69.397l-23.11-45.62h45.86l-22.75 45.62"/>
    <path fill="#FAEB98" d="M12.07 23.776h45.86l-8.447-15.69H20.517l-8.448 15.69"/>
    <path fill="#FDFACA" d="M20.517 8.086L12.07 3.5 22.93 0h24.14l10.86 3.5-8.447 4.586H20.517"/>
    <path fill="#F6D563" d="M0 17.5l12.07-14 8.447 4.586-8.448 15.69L0 17.5m49.613-9.648l8.55-4.39 11.747 14.27-12.21 6-8.087-15.88"/>
  </g>
</svg>
