<?xml version="1.0" encoding="UTF-8" standalone="no"?>
<svg width="70px" height="56px" viewBox="0 0 70 56" version="1.1" xmlns="http://www.w3.org/2000/svg" xmlns:xlink="http://www.w3.org/1999/xlink">
    <!-- Generator: Sketch 3.8.3 (29802) - http://www.bohemiancoding.com/sketch -->
    <title>susy</title>
    <desc>Created with Sketch.</desc>
    <defs></defs>
    <g id="Welcome" stroke="none" stroke-width="1" fill="none" fill-rule="evenodd">
        <g id="Profile" transform="translate(-539.000000, -1892.000000)" fill="#FF0080">
            <g id="workflow" transform="translate(365.000000, 1879.000000)">
                <g id="susy" transform="translate(174.000000, 13.000000)">
                    <path d="M0,27.2091641 L0,26.4169609 C3.42775369,23.7968281 7.66187337,20.1409687 10.8206765,17.0333516 L12.4336513,18.0082656 C10.6191761,20.9332266 7.99803122,24.1016016 5.44403296,26.4780469 C9.47665221,31.0480078 9.67815265,31.2919687 12.2992975,35.1917891 L10.8206765,36.1667031 C9.34205551,34.7653906 8.67004337,34.0948125 6.58655681,32.389 C4.16697311,30.3168359 4.43562012,30.6213906 0.940962706,27.9403906 L0,27.2092187 L0,27.2091641 L0,27.2091641 Z M13.7166609,41.3732266 L16.588118,40.08025 C21.9717433,47.4338047 30.4962012,52.5247734 37.3155854,52.5247734 C43.8658977,52.5247734 48.5321596,48.3225859 48.5321596,42.3428906 C48.5321596,36.4440781 44.7633304,33.4542031 33.9060451,30.7876406 C20.9850043,27.636 16.0497311,23.3532031 16.0497311,15.0302031 C16.0497311,6.70698437 23.2281006,0 32.0216305,0 C34.4444319,0 34.2647875,0 39.9180312,1.53535156 C40.7254293,1.77778125 41.8024458,1.93954688 42.2508586,1.93954688 C42.8789159,1.93954688 43.7762879,1.69711719 44.5839896,1.37380469 L47.6345447,0.00021875 L53.1978144,13.979875 L50.3263573,15.6767734 C45.1220729,7.91924219 38.4820295,3.47467969 32.0216912,3.47467969 C26.3686904,3.47467969 22.1514484,7.27267187 22.1514484,12.4445234 C22.1514484,17.5352187 26.009948,20.848625 33.9957762,22.7070703 C37.8542758,23.5960703 40.6358196,24.3233594 41.9818474,24.6463984 C50.0575889,26.8281016 54.9031917,32.5656953 54.9031917,39.7574844 C54.9031917,48.8888203 47.096765,56 37.2262793,56 C34.1754206,56 32.650052,55.6766875 28.8814657,54.1413359 C27.266366,53.4947109 26.2793235,53.2525547 25.6512663,53.2525547 C24.7538942,53.2525547 24.1258369,53.4949844 23.049124,54.0606719 L19.6395837,56 L13.7167216,41.3732266 L13.7166609,41.3732266 L13.7166609,41.3732266 Z M57.7112056,35.1920078 C60.3324111,31.2310469 60.466765,31.0483906 64.4994449,26.4781562 C61.9454467,24.1017109 59.3242411,20.9332266 57.5097051,18.0082656 L59.1896444,17.0333516 C62.2816045,20.1410234 66.3811882,23.6750391 69.9433565,26.4170703 L69.9433565,27.2093281 L66.5155421,29.7684844 C65.2386644,30.7436719 61.5421422,33.9121016 59.1227407,36.1667031 L57.7112663,35.1920625 L57.7112056,35.1920078 L57.7112056,35.1920078 Z" id="Shape"></path>
                </g>
            </g>
        </g>
    </g>
</svg>