<?xml version="1.0" encoding="UTF-8" standalone="no"?>
<svg width="90px" height="54px" viewBox="0 0 90 54" version="1.1" xmlns="http://www.w3.org/2000/svg" xmlns:xlink="http://www.w3.org/1999/xlink">
    <!-- Generator: Sketch 3.8.3 (29802) - http://www.bohemiancoding.com/sketch -->
    <title>woocommerce</title>
    <desc>Created with Sketch.</desc>
    <defs></defs>
    <g id="Welcome" stroke="none" stroke-width="1" fill="none" fill-rule="evenodd">
        <g id="Profile" transform="translate(-339.000000, -2007.000000)">
            <g id="woocommerce" transform="translate(339.000000, 2007.000000)">
                <path d="M8.35265545,0 L81.610818,0 C86.2469448,0 90,3.75305505 90,8.38918185 L90,36.3531213 C90,40.9892481 86.2469448,44.7423033 81.610818,44.7423033 L55.3394327,44.7423033 L58.9453091,53.573021 L43.086812,44.7423033 L8.38945013,44.7423033 C3.7533233,44.7423033 0.000268255708,40.9892481 0.000268255708,36.3531213 L0.000268255708,8.38918185 C-0.0365264016,3.78984969 3.71652863,0 8.35265545,0 L8.35265545,0 L8.35265545,0 Z" id="Shape" fill="#9B5C8F"></path>
                <path d="M5.12514823,7.64634146 C5.63734332,6.9512195 6.40563602,6.58536585 7.43002625,6.51219511 C9.29587992,6.36585367 10.3568555,7.24390242 10.6129531,9.14634148 C11.7470994,16.7926829 12.9910019,23.2682927 14.3080751,28.5731707 L22.3202702,13.3170732 C23.0519775,11.9268293 23.9666116,11.1951219 25.0641726,11.1219512 C26.6739287,11.0121951 27.6617336,12.0365854 28.0641726,14.195122 C28.9788068,19.0609756 30.1495385,23.195122 31.5397824,26.7073171 C32.4910019,17.4146341 34.100758,10.7195122 36.3690506,6.58536585 C36.9178313,5.56097562 37.7227093,5.04878048 38.7836849,4.97560975 C39.6251483,4.90243901 40.3934411,5.15853657 41.0885627,5.70731706 C41.7836848,6.25609758 42.1495383,6.9512195 42.2227093,7.79268294 C42.2592947,8.45121952 42.1495383,9 41.8568555,9.54878048 C40.4300264,12.1829268 39.2592945,16.6097561 38.308075,22.7560976 C37.3934408,28.7195122 37.0641727,33.3658537 37.2836848,36.695122 C37.3568555,37.6097562 37.2105141,38.4146343 36.8446605,39.1097559 C36.405636,39.914634 35.7470993,40.3536586 34.905636,40.4268293 C33.9544165,40.5 32.9666116,40.0609758 32.0153921,39.0731706 C28.6129531,35.5975611 25.905636,30.402439 23.9300263,23.4878049 C21.5519775,28.1707317 19.7958799,31.6829268 18.6617336,34.0243902 C16.503197,38.1585364 14.6739287,40.2804879 13.1373433,40.3902439 C12.1495385,40.4634146 11.308075,39.6219512 10.5763677,37.8658536 C8.71051405,33.0731707 6.69831894,23.8170732 4.53978236,10.097561 C4.39344088,9.14634148 4.61295309,8.30487804 5.12514823,7.64634146 L5.12514823,7.64634146 Z M83.7470995,13.3902439 C82.4300262,11.0853658 80.4910018,9.69512196 77.8934408,9.14634148 C77.1983188,9 76.5397825,8.92682926 75.9178311,8.92682926 C72.405636,8.92682926 69.5519775,10.7560976 67.32027,14.4146341 C65.417831,17.5243903 64.4666115,20.9634146 64.4666115,24.7317073 C64.4666115,27.5487805 65.0519775,29.9634146 66.2227091,31.9756097 C67.5397825,34.2804878 69.4788068,35.6707318 72.0763678,36.2195121 C72.7714898,36.3658535 73.4300262,36.4390242 74.0519775,36.4390242 C77.600758,36.4390242 80.4544165,34.6097561 82.6495383,30.9512195 C84.5519776,27.8048781 85.5031971,24.3658537 85.5031971,20.597561 C85.5397825,17.7439024 84.9178311,15.3658537 83.7470995,13.3902439 L83.7470995,13.3902439 Z M79.1373435,23.5243902 C78.6251482,25.9390244 77.7105141,27.7317073 76.3568557,28.9390244 C75.2958798,29.8902439 74.308075,30.2926829 73.3934408,30.1097561 C72.515392,29.9268293 71.7836846,29.1585366 71.2349044,27.7317073 C70.7958798,26.597561 70.5763677,25.4634146 70.5763677,24.402439 C70.5763677,23.4878049 70.6495384,22.5731707 70.8324652,21.7317073 C71.1617337,20.2317073 71.7836846,18.7682927 72.7714898,17.3780488 C73.9788068,15.5853658 75.2592945,14.8536585 76.5763678,15.1097561 C77.4544166,15.2926829 78.186124,16.0609756 78.7349043,17.4878049 C79.1739288,18.6219512 79.3934409,19.7560976 79.3934409,20.8170732 C79.3934409,21.7682927 79.3202702,22.6829268 79.1373435,23.5243902 L79.1373435,23.5243902 Z M60.8446603,13.3902439 C59.5275873,11.0853658 57.5519776,9.69512196 54.991002,9.14634148 C54.2958799,9 53.6373432,8.92682926 53.0153923,8.92682926 C49.5031971,8.92682926 46.6495383,10.7560976 44.4178311,14.4146341 C42.5153921,17.5243903 41.5641727,20.9634146 41.5641727,24.7317073 C41.5641727,27.5487805 42.1495383,29.9634146 43.3202702,31.9756097 C44.6373432,34.2804878 46.5763676,35.6707318 49.1739286,36.2195121 C49.8690506,36.3658535 50.5275873,36.4390242 51.1495383,36.4390242 C54.6983188,36.4390242 57.5519776,34.6097561 59.7470994,30.9512195 C61.6495384,27.8048781 62.6007579,24.3658537 62.6007579,20.597561 C62.6007579,17.7439024 62.0153923,15.3658537 60.8446603,13.3902439 L60.8446603,13.3902439 Z M56.1983189,23.5243902 C55.686124,25.9390244 54.7714898,27.7317073 53.4178311,28.9390244 C52.3568556,29.8902439 51.3690507,30.2926829 50.4544166,30.1097561 C49.5763678,29.9268293 48.8446604,29.1585366 48.2958798,27.7317073 C47.8568556,26.597561 47.6373435,25.4634146 47.6373435,24.402439 C47.6373435,23.4878049 47.7105142,22.5731707 47.8934409,21.7317073 C48.2227091,20.2317073 48.8446604,18.7682927 49.8324653,17.3780488 C51.0397822,15.5853658 52.3202702,14.8536585 53.6373432,15.1097561 C54.515392,15.2926829 55.2470994,16.0609756 55.79588,17.4878049 C56.2349043,18.6219512 56.4544164,19.7560976 56.4544164,20.8170732 C56.4910017,21.7682927 56.3812457,22.6829268 56.1983189,23.5243902 L56.1983189,23.5243902 L56.1983189,23.5243902 L56.1983189,23.5243902 Z" id="Shape" fill="#FFFFFF"></path>
            </g>
        </g>
    </g>
</svg>