<?xml version="1.0" encoding="UTF-8" standalone="no"?>
<svg width="57px" height="57px" viewBox="0 0 57 57" version="1.1" xmlns="http://www.w3.org/2000/svg" xmlns:xlink="http://www.w3.org/1999/xlink">
    <!-- Generator: Sketch 3.8.3 (29802) - http://www.bohemiancoding.com/sketch -->
    <title>wordpress</title>
    <desc>Created with Sketch.</desc>
    <defs></defs>
    <g id="Welcome" stroke="none" stroke-width="1" fill="none" fill-rule="evenodd">
        <g id="Profile" transform="translate(-339.000000, -1592.000000)" fill="#464342">
            <g id="CMS" transform="translate(339.000000, 1586.000000)">
                <g id="wordpress" transform="translate(0.000000, 6.000000)">
                    <path d="M4.03541464,28.3887805 C4.03541464,38.0287316 9.63763414,46.3595366 17.7612927,50.3073659 L6.14395122,18.4772683 C4.79263414,21.5061463 4.03541464,24.8580244 4.03541464,28.3887805 L4.03541464,28.3887805 L4.03541464,28.3887805 Z M44.8307318,27.1598049 C44.8307318,24.1499268 43.7495854,22.0654878 42.8222927,20.4430732 C41.5877562,18.4369512 40.4306097,16.7380732 40.4306097,14.7319512 C40.4306097,12.4931951 42.1285611,10.4092195 44.5202439,10.4092195 C44.6282195,10.4092195 44.7306342,10.4226585 44.8358293,10.4286829 C40.5029024,6.45907316 34.7301463,4.03541464 28.3897072,4.03541464 C19.8814146,4.03541464 12.395878,8.40078048 8.04117073,15.0127805 C8.61256097,15.0299268 9.15104879,15.0419756 9.60843903,15.0419756 C12.1558293,15.0419756 16.0990244,14.732878 16.0990244,14.732878 C17.411878,14.6554878 17.5666585,16.5837561 16.2551951,16.739 C16.2551951,16.739 14.9358537,16.8942439 13.4677561,16.9711707 L22.3365853,43.3510487 L27.6663171,27.3664878 L23.8718781,16.9702439 C22.5604145,16.8933171 21.318,16.7380732 21.318,16.7380732 C20.0056098,16.6611463 20.1594634,14.654561 21.4718537,14.7319512 C21.4718537,14.7319512 25.4938294,15.0410488 27.8869024,15.0410488 C30.4338292,15.0410488 34.3774878,14.7319512 34.3774878,14.7319512 C35.6912683,14.654561 35.8455853,16.5828293 34.5336586,16.7380732 C34.5336586,16.7380732 33.2115365,16.8933171 31.7462195,16.9702439 L40.5473902,43.1503903 L42.9766097,35.0327562 C44.0294879,31.6641951 44.8307318,29.2447072 44.8307318,27.1598049 L44.8307318,27.1598049 L44.8307318,27.1598049 Z M28.8169757,30.5190976 L21.5098537,51.7522928 C23.6916098,52.3936586 25.9989513,52.7444635 28.3897072,52.7444635 C31.2258048,52.7444635 33.9455854,52.2541706 36.4772195,51.3639513 C36.4118781,51.259683 36.3525609,51.1489268 36.3039025,51.0284391 L28.8169757,30.5190976 L28.8169757,30.5190976 L28.8169757,30.5190976 Z M49.7596097,16.7042439 C49.8643414,17.48 49.9236586,18.3127561 49.9236586,19.2085366 C49.9236586,21.6799268 49.4620976,24.4580975 48.0718538,27.9318536 L40.6326586,49.4403171 C47.8730487,45.2181463 52.7430732,37.3739268 52.7430732,28.3892439 C52.7435366,24.1550245 51.6619268,20.1733659 49.7596097,16.7042439 L49.7596097,16.7042439 L49.7596097,16.7042439 Z M28.3897072,0 C12.7360244,0 0,12.7350976 0,28.3887805 C0,44.044317 12.7360244,56.7789513 28.3897072,56.7789513 C44.0429268,56.7789513 56.7808049,44.044317 56.7808049,28.3887805 C56.7803414,12.7350976 44.0429268,0 28.3897072,0 L28.3897072,0 L28.3897072,0 Z M28.3897072,55.477683 C13.4538537,55.477683 1.30173171,43.3255611 1.30173171,28.3887805 C1.30173171,13.4529268 13.4533902,1.30173171 28.3897072,1.30173171 C43.3250975,1.30173171 55.4762927,13.4529268 55.4762927,28.3887805 C55.4762927,43.3255611 43.3250975,55.477683 28.3897072,55.477683 L28.3897072,55.477683 L28.3897072,55.477683 Z" id="Shape"></path>
                </g>
            </g>
        </g>
    </g>
</svg>