<?xml version="1.0" encoding="UTF-8" standalone="no"?>
<svg width="30px" height="40px" viewBox="0 0 30 40" version="1.1" xmlns="http://www.w3.org/2000/svg" xmlns:xlink="http://www.w3.org/1999/xlink">
    <!-- Generator: Sketch 3.8.3 (29802) - http://www.bohemiancoding.com/sketch -->
    <title>map-marker</title>
    <desc>Created with Sketch.</desc>
    <defs></defs>
    <g id="Page-1" stroke="none" stroke-width="1" fill="none" fill-rule="evenodd">
        <g id="map-marker" fill="#FF5722">
            <path d="M29.964,32.4030411 C29.964,37.5413425 22.211589,39.8805205 15.0087945,39.8805205 C7.80641096,39.8805205 0.0535068493,37.5413425 0.0535068493,32.4030411 C0.0535068493,28.1528219 5.3599726,25.8236712 11.2698082,25.1419726 L11.2698082,27.6710959 C6.22528767,28.3085753 2.54605479,30.1732603 2.54605479,32.4030411 C2.54605479,35.155726 8.12391781,37.3878904 15.0087123,37.3878904 C21.8923562,37.3878904 27.4712877,35.155726 27.4712877,32.4030411 C27.4712877,30.1732603 23.7911507,28.3085753 18.7475342,27.6710959 L18.7475342,25.1419726 C24.6572877,25.8236712 29.964,28.1528219 29.964,32.4030411 L29.964,32.4030411 Z M15.0087123,0 C10.1915342,0 6.2849589,3.90673973 6.2849589,8.72391781 C6.2849589,13.1149315 9.54057534,16.7126301 13.7624384,17.3210137 L13.7624384,32.4030411 L16.2550685,32.4030411 L16.2550685,17.3210137 C20.4757808,16.7126301 23.7328767,13.1149315 23.7328767,8.72391781 C23.7328767,3.90673973 19.8258904,0 15.0087123,0 L15.0087123,0 Z M12.5160822,7.47764384 C11.1383836,7.47764384 10.0236986,6.36271233 10.0236986,4.9850137 C10.0236986,3.60731507 11.1383836,2.49263014 12.5160822,2.49263014 C13.8939452,2.49263014 15.0087123,3.60731507 15.0087123,4.9850137 C15.0087123,6.36271233 13.8939452,7.47764384 12.5160822,7.47764384 L12.5160822,7.47764384 Z" id="Shape"></path>
        </g>
    </g>
</svg>