<svg width="305px" height="300px" viewBox="0 0 305 300" version="1.1" xmlns="http://www.w3.org/2000/svg" xmlns:xlink="http://www.w3.org/1999/xlink">
    <defs>
        <linearGradient x1="50%" y1="0%" x2="50%" y2="100%" id="linearGradient-1">
            <stop stop-color="#08005B" offset="0%"></stop>
            <stop stop-color="#06003A" offset="100%"></stop>
        </linearGradient>
    </defs>
    <g id="Page-1" stroke="none" stroke-width="1" fill="none" fill-rule="evenodd">
        <g id="Artboard-1">
            <g id="Group">
                <rect id="Rectangle-1" fill="#AAD1FF" x="0" y="0" width="304.690002" height="300.002464"></rect>
                <rect id="Rectangle-2" fill="url(#linearGradient-1)" x="24.2189489" y="23.4376925" width="257.033361" height="253.127079"></rect>
                <path d="M69.40682,210.157976 L97.7195526,210.157976 L97.7195526,164.970105 C100.344574,165.345108 103.719602,165.53261 107.469633,165.53261 C124.344771,165.53261 138.78239,161.407576 148.53247,152.22 C156.032532,145.094942 160.157565,134.594855 160.157565,122.219754 C160.157565,109.844652 154.720021,99.3445659 146.657455,92.9695136 C138.219885,86.2194581 125.657282,82.8444304 108.032137,82.8444304 C90.5944941,82.8444304 78.2193924,83.9694396 69.40682,85.469452 L69.40682,210.157976 Z M97.7195526,105.532117 C99.7820695,104.969612 103.719602,104.407108 109.53215,104.407108 C123.782267,104.407108 131.844833,111.344664 131.844833,122.96976 C131.844833,135.907366 122.469756,143.594929 107.282131,143.594929 C103.157097,143.594929 100.157073,143.407428 97.7195526,142.844923 L97.7195526,105.532117 Z M177.220206,206.761842 C184.157763,210.511873 189.782809,212.220493 201.782907,212.220493 C228.033123,212.220493 241.533234,199.470388 241.533234,182.407748 C241.345732,168.907637 234.033172,160.095065 216.595529,154.095016 C205.345437,150.157483 201.782907,147.907465 201.782907,143.594929 C201.782907,138.907391 205.72044,136.094868 212.657997,136.094868 C220.533061,136.094868 233.470668,140.302881 237.595702,142.5529 L237.595701,121.657249 C231.970655,118.844726 222.408077,116.407206 211.720489,116.407206 C189.032803,116.407206 174.407682,129.344812 174.407682,146.594954 C174.220181,157.282542 181.532741,167.595126 200.470396,173.970179 C211.157984,177.532708 213.970507,179.782727 213.970507,184.470265 C213.970507,189.157804 210.407978,192.157828 201.782907,192.157828 C193.345338,192.157828 182.470249,188.407797 177.220206,185.220271 L177.220206,206.761842 Z" id="Ps-Copy" fill="#8EC4FC"></path>
            </g>
        </g>
    </g>
</svg>